<svg id="Layer_1" data-name="Layer 1" xmlns="http://www.w3.org/2000/svg" viewBox="0 0 1375.07 584.47"><defs><style>.cls-1{fill:#ccc;}</style></defs><ellipse cx="134.78" cy="53" rx="51" ry="53"/><path d="M349.93,298.74c-10.69,5.08-23.32.19-28.2-10.93L305.6,251.13v67.34h-154V244.29l-19,43.25c-4.88,11.12-17.51,16-28.2,10.93S89,280.26,93.86,269.15L137,171c3.93-8.93,11.91-13,21.78-12.78,1.11,0,2.22.17,3.33.17h137.2a20.5,20.5,0,0,1,5.89,1.29,21.49,21.49,0,0,1,12.11,11.6l43.14,98.1C365.33,280.54,360.63,293.66,349.93,298.74Z" transform="translate(-91.93 -43)"/><ellipse cx="410.93" cy="53" rx="51" ry="53"/><path d="M626.09,298.74c-10.7,5.08-23.33.19-28.21-10.93l-16.13-36.68v67.34h-154V244.29l-19,43.25c-4.88,11.12-17.51,16-28.21,10.93s-15.4-18.21-10.52-29.32L413.15,171c3.93-8.93,11.92-13,21.79-12.78,1.11,0,2.21.17,3.32.17H575.47a20.36,20.36,0,0,1,5.88,1.29,21.51,21.51,0,0,1,12.12,11.6l43.14,98.1C641.49,280.54,636.78,293.66,626.09,298.74Z" transform="translate(-91.93 -43)"/><ellipse cx="687.09" cy="53" rx="51" ry="53"/><path d="M902.24,298.74c-10.69,5.08-23.32.19-28.2-10.93l-16.13-36.68v67.34h-154V244.29l-19,43.25c-4.88,11.12-17.51,16-28.2,10.93s-15.4-18.21-10.52-29.32L689.31,171c3.93-8.93,11.91-13,21.78-12.78,1.11,0,2.22.17,3.33.17H851.63a20.51,20.51,0,0,1,5.88,1.29,21.49,21.49,0,0,1,12.11,11.6l43.14,98.1C917.64,280.54,912.94,293.66,902.24,298.74Z" transform="translate(-91.93 -43)"/><ellipse cx="963.24" cy="53" rx="51" ry="53"/><path d="M1178.4,298.74c-10.7,5.08-23.33.19-28.21-10.93l-16.13-36.68v67.34h-154V244.29l-19,43.25c-4.88,11.12-17.51,16-28.21,10.93s-15.4-18.21-10.52-29.32L965.46,171c3.93-8.93,11.92-13,21.79-12.78,1.11,0,2.21.17,3.32.17h137.21a20.36,20.36,0,0,1,5.88,1.29,21.51,21.51,0,0,1,12.12,11.6l43.14,98.1C1193.8,280.54,1189.09,293.66,1178.4,298.74Z" transform="translate(-91.93 -43)"/><ellipse cx="1239.4" cy="53" rx="51" ry="53"/><path d="M1454.55,298.74c-10.69,5.08-23.32.19-28.2-10.93l-16.13-36.68v67.34h-154V244.29l-19,43.25c-4.88,11.12-17.51,16-28.2,10.93s-15.4-18.21-10.52-29.32L1241.62,171c3.93-8.93,11.91-13,21.78-12.78,1.11,0,2.22.17,3.33.17h137.21a20.51,20.51,0,0,1,5.88,1.29,21.49,21.49,0,0,1,12.11,11.6l43.14,98.1C1470,280.54,1465.25,293.66,1454.55,298.74Z" transform="translate(-91.93 -43)"/><ellipse cx="134.78" cy="362" rx="51" ry="53"/><path d="M349.93,607.74c-10.69,5.08-23.32.19-28.2-10.93L305.6,560.13v67.34h-154V553.29l-19,43.25c-4.88,11.12-17.51,16-28.2,10.93S89,589.26,93.86,578.15L137,480c3.93-8.93,11.91-13,21.78-12.78,1.11,0,2.22.17,3.33.17h137.2a20.5,20.5,0,0,1,5.89,1.29,21.49,21.49,0,0,1,12.11,11.6l43.14,98.1C365.33,589.54,360.63,602.66,349.93,607.74Z" transform="translate(-91.93 -43)"/><ellipse cx="410.93" cy="362" rx="51" ry="53"/><path d="M626.09,607.74c-10.7,5.08-23.33.19-28.21-10.93l-16.13-36.68v67.34h-154V553.29l-19,43.25c-4.88,11.12-17.51,16-28.21,10.93s-15.4-18.21-10.52-29.32L413.15,480c3.93-8.93,11.92-13,21.79-12.78,1.11,0,2.21.17,3.32.17H575.47a20.36,20.36,0,0,1,5.88,1.29,21.51,21.51,0,0,1,12.12,11.6l43.14,98.1C641.49,589.54,636.78,602.66,626.09,607.74Z" transform="translate(-91.93 -43)"/><ellipse cx="687.09" cy="362" rx="51" ry="53"/><path d="M902.24,607.74c-10.69,5.08-23.32.19-28.2-10.93l-16.13-36.68v67.34h-154V553.29l-19,43.25c-4.88,11.12-17.51,16-28.2,10.93s-15.4-18.21-10.52-29.32L689.31,480c3.93-8.93,11.91-13,21.78-12.78,1.11,0,2.22.17,3.33.17H851.63a20.51,20.51,0,0,1,5.88,1.29,21.49,21.49,0,0,1,12.11,11.6l43.14,98.1C917.64,589.54,912.94,602.66,902.24,607.74Z" transform="translate(-91.93 -43)"/><ellipse cx="963.24" cy="362" rx="51" ry="53"/><path d="M1178.4,607.74c-10.7,5.08-23.33.19-28.21-10.93l-16.13-36.68v67.34h-154V553.29l-19,43.25c-4.88,11.12-17.51,16-28.21,10.93s-15.4-18.21-10.52-29.32L965.46,480c3.93-8.93,11.92-13,21.79-12.78,1.11,0,2.21.17,3.32.17h137.21a20.36,20.36,0,0,1,5.88,1.29,21.51,21.51,0,0,1,12.12,11.6l43.14,98.1C1193.8,589.54,1189.09,602.66,1178.4,607.74Z" transform="translate(-91.93 -43)"/><ellipse class="cls-1" cx="1239.4" cy="362" rx="51" ry="53"/><path class="cls-1" d="M1454.55,607.74c-10.69,5.08-23.32.19-28.2-10.93l-16.13-36.68v67.34h-154V553.29l-19,43.25c-4.88,11.12-17.51,16-28.2,10.93s-15.4-18.21-10.52-29.32L1241.62,480c3.93-8.93,11.91-13,21.78-12.78,1.11,0,2.22.17,3.33.17h137.21a20.51,20.51,0,0,1,5.88,1.29,21.49,21.49,0,0,1,12.11,11.6l43.14,98.1C1470,589.54,1465.25,602.66,1454.55,607.74Z" transform="translate(-91.93 -43)"/></svg>